<?xml version="1.0" encoding="utf-8"?>
<!-- Generator: Adobe Illustrator 19.1.0, SVG Export Plug-In . SVG Version: 6.00 Build 0)  -->
<svg version="1.1" id="Layer_1" xmlns="http://www.w3.org/2000/svg" xmlns:xlink="http://www.w3.org/1999/xlink" x="0px" y="0px"
	 viewBox="-367 269 64 64" style="enable-background:new -367 269 64 64;" xml:space="preserve">
<style type="text/css">
	.st0{fill:#F9F7F7;}
</style>
<path class="st0" d="M-313.7,269h-42.7c-5.9,0-10.7,4.8-10.7,10.7v42.7c0,5.9,4.8,10.7,10.7,10.7h42.7c5.9,0,10.7-4.8,10.7-10.7
	v-42.7C-303,273.8-307.8,269-313.7,269z M-355.6,324.4l-4.8-4.8l16-16l1.8,1.8L-355.6,324.4L-355.6,324.4z M-357.4,281.4l1.8-1.8
	l20.6,16.6l20.6-16.6l1.8,1.8l-22.4,26.4L-357.4,281.4L-357.4,281.4z M-314.4,324.4l-13-19l1.8-1.8l16,16L-314.4,324.4z"/>
</svg>
