<svg width="100" height="100" xmlns="http://www.w3.org/2000/svg">

 <g>
  <title>background</title>
  <rect fill="none" id="canvas_background" height="402" width="582" y="-1" x="-1"/>
 </g>
 <g>
  <title>Layer 1</title>
  <g id="svg_1">
   <path id="svg_2" fill="#ffffff" d="m3.361,67.280998l1.639,-7.001999l-1.639,-7.237999c-0.045,-0.215 -0.457,-0.379002 -0.959,-0.379002c-0.508,0 -0.92,0.164001 -0.959,0.381001l-1.443,7.236l1.443,7.001999c0.039,0.217003 0.451,0.381004 0.959,0.381004c0.502,0 0.914,-0.164001 0.959,-0.381004zm10.25,3.887001l1.389,-10.82l-1.389,-16.739998c-0.041,-0.426003 -0.561,-0.760002 -1.191,-0.760002c-0.635,0 -1.156,0.334 -1.188,0.760002l-1.232,16.739998l1.232,10.82c0.030999,0.421997 0.552999,0.756004 1.188,0.756004c0.631,0 1.15,-0.330002 1.191,-0.756004zm10.229,-0.178001l1.16,-10.635998l-1.16,-22.286999c-0.031,-0.523003 -0.648001,-0.934002 -1.403999,-0.934002c-0.762001,0 -1.379002,0.41 -1.406,0.934002l-1.030001,22.286999l1.028999,10.642002c0.027,0.518997 0.645,0.928001 1.406,0.928001c0.756001,-0.002007 1.374001,-0.410004 1.405001,-0.934006zm10.209,-0.157997l0.951,-10.477001l-0.951,-22.449001c-0.022999,-0.620998 -0.727001,-1.106998 -1.599998,-1.106998c-0.879002,0 -1.582001,0.486 -1.604002,1.106998l-0.844999,22.449001l0.85,10.475002c0.018,0.614998 0.720999,1.101997 1.6,1.101997c0.871998,0 1.575001,-0.478996 1.598999,-1.099998zm10.199001,-0.133003l0.751999,-10.339996l-0.751999,-25.740002c-0.016003,-0.707001 -0.818001,-1.280998 -1.787003,-1.280998c-0.970997,0 -1.771,0.576 -1.786999,1.280998l-0.674,25.733002c0,0.016998 0.674,10.348995 0.674,10.348995c0.015999,0.698006 0.816002,1.272003 1.786999,1.272003c0.969002,0 1.771,-0.567001 1.787003,-1.274002zm7.142998,1.281006c0.033001,0.001999 35.492004,0.019997 35.723,0.019997c7.118004,0 12.886002,-5.580002 12.886002,-12.463001c0,-6.884998 -5.767998,-12.465 -12.887001,-12.465c-1.765999,0 -3.448997,0.348 -4.984001,0.969002c-1.025002,-11.23 -10.765999,-20.041 -22.644997,-20.041c-2.906002,0 -5.742001,0.552999 -8.243999,1.488001c-0.972,0.365999 -1.232002,0.738998 -1.240002,1.466999l0,39.553003c0.009998,0.761993 0.620998,1.397995 1.390999,1.472z"/>
  </g>
  <g id="svg_3"/>
  <g id="svg_4"/>
  <g id="svg_5"/>
  <g id="svg_6"/>
  <g id="svg_7"/>
  <g id="svg_8"/>
  <g id="svg_9"/>
  <g id="svg_10"/>
  <g id="svg_11"/>
  <g id="svg_12"/>
  <g id="svg_13"/>
  <g id="svg_14"/>
  <g id="svg_15"/>
  <g id="svg_16"/>
  <g id="svg_17"/>
 </g>
</svg>